<mxfile host="app.diagrams.net" modified="2024-01-18T20:38:19.678Z" agent="Mozilla/5.0 (Macintosh; Intel Mac OS X 10_15_7) AppleWebKit/537.36 (KHTML, like Gecko) Chrome/120.0.0.0 Safari/537.36" etag="QpbafpFZAd6r0cTF8VDl" version="22.1.18" type="device">
  <diagram name="Page-1" id="_wPHc_9P_sjyE9HKiwnl">
    <mxGraphModel dx="1306" dy="847" grid="1" gridSize="10" guides="1" tooltips="1" connect="1" arrows="1" fold="1" page="1" pageScale="1" pageWidth="850" pageHeight="1100" math="0" shadow="0">
      <root>
        <mxCell id="0" />
        <mxCell id="1" parent="0" />
        <mxCell id="1C_f8xV8wv5BQzBdm4HJ-1" value="" style="ellipse;whiteSpace=wrap;html=1;aspect=fixed;" vertex="1" parent="1">
          <mxGeometry x="160" y="270" width="80" height="80" as="geometry" />
        </mxCell>
        <mxCell id="1C_f8xV8wv5BQzBdm4HJ-2" value="" style="ellipse;whiteSpace=wrap;html=1;aspect=fixed;" vertex="1" parent="1">
          <mxGeometry x="160" y="470" width="80" height="80" as="geometry" />
        </mxCell>
        <mxCell id="1C_f8xV8wv5BQzBdm4HJ-3" value="" style="ellipse;whiteSpace=wrap;html=1;aspect=fixed;" vertex="1" parent="1">
          <mxGeometry x="360" y="20" width="80" height="80" as="geometry" />
        </mxCell>
        <mxCell id="1C_f8xV8wv5BQzBdm4HJ-4" value="" style="ellipse;whiteSpace=wrap;html=1;aspect=fixed;" vertex="1" parent="1">
          <mxGeometry x="360" y="220" width="80" height="80" as="geometry" />
        </mxCell>
        <mxCell id="1C_f8xV8wv5BQzBdm4HJ-5" value="" style="ellipse;whiteSpace=wrap;html=1;aspect=fixed;" vertex="1" parent="1">
          <mxGeometry x="360" y="120" width="80" height="80" as="geometry" />
        </mxCell>
        <mxCell id="1C_f8xV8wv5BQzBdm4HJ-6" value="" style="ellipse;whiteSpace=wrap;html=1;aspect=fixed;" vertex="1" parent="1">
          <mxGeometry x="360" y="320" width="80" height="80" as="geometry" />
        </mxCell>
        <mxCell id="1C_f8xV8wv5BQzBdm4HJ-7" value="" style="ellipse;whiteSpace=wrap;html=1;aspect=fixed;" vertex="1" parent="1">
          <mxGeometry x="360" y="420" width="80" height="80" as="geometry" />
        </mxCell>
        <mxCell id="1C_f8xV8wv5BQzBdm4HJ-8" value="" style="ellipse;whiteSpace=wrap;html=1;aspect=fixed;" vertex="1" parent="1">
          <mxGeometry x="360" y="520" width="80" height="80" as="geometry" />
        </mxCell>
        <mxCell id="1C_f8xV8wv5BQzBdm4HJ-9" value="" style="ellipse;whiteSpace=wrap;html=1;aspect=fixed;" vertex="1" parent="1">
          <mxGeometry x="360" y="620" width="80" height="80" as="geometry" />
        </mxCell>
        <mxCell id="1C_f8xV8wv5BQzBdm4HJ-10" value="" style="ellipse;whiteSpace=wrap;html=1;aspect=fixed;" vertex="1" parent="1">
          <mxGeometry x="360" y="720" width="80" height="80" as="geometry" />
        </mxCell>
        <mxCell id="1C_f8xV8wv5BQzBdm4HJ-11" value="" style="endArrow=none;html=1;rounded=0;" edge="1" parent="1" source="1C_f8xV8wv5BQzBdm4HJ-1" target="1C_f8xV8wv5BQzBdm4HJ-3">
          <mxGeometry width="50" height="50" relative="1" as="geometry">
            <mxPoint x="400" y="460" as="sourcePoint" />
            <mxPoint x="450" y="410" as="targetPoint" />
          </mxGeometry>
        </mxCell>
        <mxCell id="1C_f8xV8wv5BQzBdm4HJ-12" value="" style="endArrow=none;html=1;rounded=0;" edge="1" parent="1" source="1C_f8xV8wv5BQzBdm4HJ-1" target="1C_f8xV8wv5BQzBdm4HJ-5">
          <mxGeometry width="50" height="50" relative="1" as="geometry">
            <mxPoint x="235" y="289" as="sourcePoint" />
            <mxPoint x="385" y="101" as="targetPoint" />
          </mxGeometry>
        </mxCell>
        <mxCell id="1C_f8xV8wv5BQzBdm4HJ-13" value="" style="endArrow=none;html=1;rounded=0;" edge="1" parent="1" source="1C_f8xV8wv5BQzBdm4HJ-1" target="1C_f8xV8wv5BQzBdm4HJ-4">
          <mxGeometry width="50" height="50" relative="1" as="geometry">
            <mxPoint x="242" y="296" as="sourcePoint" />
            <mxPoint x="378" y="194" as="targetPoint" />
          </mxGeometry>
        </mxCell>
        <mxCell id="1C_f8xV8wv5BQzBdm4HJ-14" value="" style="endArrow=none;html=1;rounded=0;" edge="1" parent="1" source="1C_f8xV8wv5BQzBdm4HJ-1" target="1C_f8xV8wv5BQzBdm4HJ-6">
          <mxGeometry width="50" height="50" relative="1" as="geometry">
            <mxPoint x="249" y="310" as="sourcePoint" />
            <mxPoint x="371" y="280" as="targetPoint" />
          </mxGeometry>
        </mxCell>
        <mxCell id="1C_f8xV8wv5BQzBdm4HJ-15" value="" style="endArrow=none;html=1;rounded=0;" edge="1" parent="1" source="1C_f8xV8wv5BQzBdm4HJ-1" target="1C_f8xV8wv5BQzBdm4HJ-7">
          <mxGeometry width="50" height="50" relative="1" as="geometry">
            <mxPoint x="249" y="330" as="sourcePoint" />
            <mxPoint x="371" y="360" as="targetPoint" />
          </mxGeometry>
        </mxCell>
        <mxCell id="1C_f8xV8wv5BQzBdm4HJ-16" value="" style="endArrow=none;html=1;rounded=0;" edge="1" parent="1" source="1C_f8xV8wv5BQzBdm4HJ-1" target="1C_f8xV8wv5BQzBdm4HJ-8">
          <mxGeometry width="50" height="50" relative="1" as="geometry">
            <mxPoint x="242" y="344" as="sourcePoint" />
            <mxPoint x="378" y="446" as="targetPoint" />
          </mxGeometry>
        </mxCell>
        <mxCell id="1C_f8xV8wv5BQzBdm4HJ-17" value="" style="endArrow=none;html=1;rounded=0;" edge="1" parent="1" source="1C_f8xV8wv5BQzBdm4HJ-1" target="1C_f8xV8wv5BQzBdm4HJ-9">
          <mxGeometry width="50" height="50" relative="1" as="geometry">
            <mxPoint x="235" y="351" as="sourcePoint" />
            <mxPoint x="385" y="539" as="targetPoint" />
          </mxGeometry>
        </mxCell>
        <mxCell id="1C_f8xV8wv5BQzBdm4HJ-18" value="" style="endArrow=none;html=1;rounded=0;" edge="1" parent="1" source="1C_f8xV8wv5BQzBdm4HJ-1" target="1C_f8xV8wv5BQzBdm4HJ-10">
          <mxGeometry width="50" height="50" relative="1" as="geometry">
            <mxPoint x="230" y="355" as="sourcePoint" />
            <mxPoint x="390" y="635" as="targetPoint" />
          </mxGeometry>
        </mxCell>
        <mxCell id="1C_f8xV8wv5BQzBdm4HJ-19" value="" style="endArrow=none;html=1;rounded=0;" edge="1" parent="1" source="1C_f8xV8wv5BQzBdm4HJ-2" target="1C_f8xV8wv5BQzBdm4HJ-3">
          <mxGeometry width="50" height="50" relative="1" as="geometry">
            <mxPoint x="400" y="460" as="sourcePoint" />
            <mxPoint x="450" y="410" as="targetPoint" />
          </mxGeometry>
        </mxCell>
        <mxCell id="1C_f8xV8wv5BQzBdm4HJ-20" value="" style="endArrow=none;html=1;rounded=0;" edge="1" parent="1" source="1C_f8xV8wv5BQzBdm4HJ-2" target="1C_f8xV8wv5BQzBdm4HJ-5">
          <mxGeometry width="50" height="50" relative="1" as="geometry">
            <mxPoint x="226" y="483" as="sourcePoint" />
            <mxPoint x="394" y="107" as="targetPoint" />
          </mxGeometry>
        </mxCell>
        <mxCell id="1C_f8xV8wv5BQzBdm4HJ-21" value="" style="endArrow=none;html=1;rounded=0;" edge="1" parent="1" source="1C_f8xV8wv5BQzBdm4HJ-2" target="1C_f8xV8wv5BQzBdm4HJ-4">
          <mxGeometry width="50" height="50" relative="1" as="geometry">
            <mxPoint x="230" y="485" as="sourcePoint" />
            <mxPoint x="390" y="205" as="targetPoint" />
          </mxGeometry>
        </mxCell>
        <mxCell id="1C_f8xV8wv5BQzBdm4HJ-22" value="" style="endArrow=none;html=1;rounded=0;" edge="1" parent="1" source="1C_f8xV8wv5BQzBdm4HJ-2" target="1C_f8xV8wv5BQzBdm4HJ-6">
          <mxGeometry width="50" height="50" relative="1" as="geometry">
            <mxPoint x="235" y="489" as="sourcePoint" />
            <mxPoint x="385" y="301" as="targetPoint" />
          </mxGeometry>
        </mxCell>
        <mxCell id="1C_f8xV8wv5BQzBdm4HJ-23" value="" style="endArrow=none;html=1;rounded=0;" edge="1" parent="1" source="1C_f8xV8wv5BQzBdm4HJ-2" target="1C_f8xV8wv5BQzBdm4HJ-7">
          <mxGeometry width="50" height="50" relative="1" as="geometry">
            <mxPoint x="242" y="496" as="sourcePoint" />
            <mxPoint x="378" y="394" as="targetPoint" />
          </mxGeometry>
        </mxCell>
        <mxCell id="1C_f8xV8wv5BQzBdm4HJ-24" value="" style="endArrow=none;html=1;rounded=0;" edge="1" parent="1" source="1C_f8xV8wv5BQzBdm4HJ-2" target="1C_f8xV8wv5BQzBdm4HJ-8">
          <mxGeometry width="50" height="50" relative="1" as="geometry">
            <mxPoint x="249" y="510" as="sourcePoint" />
            <mxPoint x="371" y="480" as="targetPoint" />
          </mxGeometry>
        </mxCell>
        <mxCell id="1C_f8xV8wv5BQzBdm4HJ-25" value="" style="endArrow=none;html=1;rounded=0;" edge="1" parent="1" source="1C_f8xV8wv5BQzBdm4HJ-2" target="1C_f8xV8wv5BQzBdm4HJ-9">
          <mxGeometry width="50" height="50" relative="1" as="geometry">
            <mxPoint x="249" y="530" as="sourcePoint" />
            <mxPoint x="371" y="560" as="targetPoint" />
          </mxGeometry>
        </mxCell>
        <mxCell id="1C_f8xV8wv5BQzBdm4HJ-26" value="" style="endArrow=none;html=1;rounded=0;" edge="1" parent="1" source="1C_f8xV8wv5BQzBdm4HJ-2" target="1C_f8xV8wv5BQzBdm4HJ-10">
          <mxGeometry width="50" height="50" relative="1" as="geometry">
            <mxPoint x="242" y="544" as="sourcePoint" />
            <mxPoint x="378" y="646" as="targetPoint" />
          </mxGeometry>
        </mxCell>
      </root>
    </mxGraphModel>
  </diagram>
</mxfile>
